<?xml version="1.0" encoding="UTF-8" standalone="no"?>
<!-- Created with Inkscape (http://www.inkscape.org/) -->

<svg
   width="31.999998"
   height="31.999998"
   viewBox="0 0 8.4666661 8.4666661"
   version="1.1"
   id="svg1"
   xml:space="preserve"
   xmlns="http://www.w3.org/2000/svg"
   xmlns:svg="http://www.w3.org/2000/svg"><defs
     id="defs1" /><g
     id="layer1"
     style="display:inline"><path
       id="path1"
       style="fill:#000000;stroke-width:0.255459;stroke-linecap:round;stroke-linejoin:round;paint-order:stroke fill markers"
       d="M 4.2333333,0.52916666 A 3.7041667,3.7041667 0 0 0 0.52916666,4.2333333 3.7041667,3.7041667 0 0 0 4.2333333,7.9374999 3.7041667,3.7041667 0 0 0 7.9374999,4.2333333 3.7041667,3.7041667 0 0 0 4.2333333,0.52916666 Z m 0,0.1984375 A 3.5057292,3.5057292 0 0 1 7.7390624,4.2333333 3.5057292,3.5057292 0 0 1 4.2333333,7.7390624 3.5057292,3.5057292 0 0 1 0.72760416,4.2333333 3.5057292,3.5057292 0 0 1 4.2333333,0.72760416 Z" /><rect
       style="fill:#000000;stroke-width:0.235147;stroke-linecap:round;stroke-linejoin:round;paint-order:stroke fill markers"
       id="rect15"
       width="0.14882812"
       height="2.6458333"
       x="4.1589193"
       y="1.5875"
       ry="0.00069559715" /><rect
       style="fill:#000000;stroke-width:0.235147;stroke-linecap:round;stroke-linejoin:round;paint-order:stroke fill markers"
       id="rect20"
       width="0.14882812"
       height="2.6458333"
       x="5.7073765"
       y="-4.1950932"
       ry="0.00069559715"
       transform="rotate(60)" /><rect
       style="fill:#000000;stroke-width:0.235147;stroke-linecap:round;stroke-linejoin:round;paint-order:stroke fill markers"
       id="rect29"
       width="0.14882812"
       height="2.6458333"
       x="1.4737321"
       y="-8.427393"
       ry="0.00069559715"
       transform="rotate(120)" /><rect
       style="fill:#000000;stroke-width:0.235147;stroke-linecap:round;stroke-linejoin:round;paint-order:stroke fill markers"
       id="rect34"
       width="0.14882812"
       height="2.6458333"
       x="-4.3083692"
       y="-6.8770995"
       ry="0.00069559715"
       transform="scale(-1)" /><rect
       style="fill:#000000;stroke-width:0.235147;stroke-linecap:round;stroke-linejoin:round;paint-order:stroke fill markers"
       id="rect39"
       width="0.14882812"
       height="2.6458333"
       x="-5.8568258"
       y="-1.0945061"
       ry="0.00069559715"
       transform="rotate(-120)" /><rect
       style="fill:#000000;stroke-width:0.235147;stroke-linecap:round;stroke-linejoin:round;paint-order:stroke fill markers"
       id="rect44"
       width="0.14882812"
       height="2.6458333"
       x="-1.6231818"
       y="3.1377935"
       ry="0.00069559715"
       transform="rotate(-60)" /><rect
       style="fill:#000000;stroke-width:0.235147;stroke-linecap:round;stroke-linejoin:round;paint-order:stroke fill markers"
       id="rect2"
       width="0.14882812"
       height="2.6458333"
       x="-1.6231818"
       y="3.1377935"
       ry="0.00069559715"
       transform="rotate(-60)" /><rect
       style="display:inline;fill:#000000;stroke-width:0.157902;stroke-linecap:round;stroke-linejoin:round;paint-order:stroke fill markers"
       id="rect16"
       width="0.86156565"
       height="0.12923485"
       x="0.65002745"
       y="5.2333231"
       ry="0.00045475233"
       transform="rotate(-45)" /><rect
       style="display:inline;fill:#000000;stroke-width:0.157902;stroke-linecap:round;stroke-linejoin:round;paint-order:stroke fill markers"
       id="rect21"
       width="0.86156565"
       height="0.12923485"
       x="5.8338628"
       y="2.2393365"
       ry="0.00045475233"
       transform="rotate(15)" /><rect
       style="display:inline;fill:#000000;stroke-width:0.157902;stroke-linecap:round;stroke-linejoin:round;paint-order:stroke fill markers"
       id="rect30"
       width="0.86156565"
       height="0.12923485"
       x="5.832912"
       y="-3.7469897"
       ry="0.00045475233"
       transform="rotate(75)" /><rect
       style="display:inline;fill:#000000;stroke-width:0.157902;stroke-linecap:round;stroke-linejoin:round;paint-order:stroke fill markers"
       id="rect35"
       width="0.86156565"
       height="0.12923485"
       x="0.64812607"
       y="-6.7393298"
       ry="0.00045475233"
       transform="rotate(135)" /><rect
       style="display:inline;fill:#000000;stroke-width:0.157902;stroke-linecap:round;stroke-linejoin:round;paint-order:stroke fill markers"
       id="rect40"
       width="0.86156565"
       height="0.12923485"
       x="-4.5357094"
       y="-3.7453432"
       ry="0.00045475233"
       transform="rotate(-165)" /><rect
       style="display:inline;fill:#000000;stroke-width:0.157902;stroke-linecap:round;stroke-linejoin:round;paint-order:stroke fill markers"
       id="rect45"
       width="0.86156565"
       height="0.12923485"
       x="-4.5347586"
       y="2.2409832"
       ry="0.00045475233"
       transform="rotate(-105)" /><rect
       style="display:inline;fill:#000000;stroke-width:0.157902;stroke-linecap:round;stroke-linejoin:round;paint-order:stroke fill markers"
       id="rect3-5"
       width="0.86156565"
       height="0.12923485"
       x="-4.5347586"
       y="2.2409832"
       ry="0.00045475233"
       transform="rotate(-105)" /><rect
       style="display:inline;fill:#000000;stroke-width:0.103677;stroke-linecap:round;stroke-linejoin:round;paint-order:stroke fill markers"
       id="rect17"
       width="0.56569231"
       height="0.08485385"
       x="1.3089492"
       y="4.5744009"
       ry="0.00029858423"
       transform="rotate(-45)" /><rect
       style="display:inline;fill:#000000;stroke-width:0.103677;stroke-linecap:round;stroke-linejoin:round;paint-order:stroke fill markers"
       id="rect22"
       width="0.56569231"
       height="0.08485385"
       x="6.4927845"
       y="1.5804144"
       ry="0.00029858423"
       transform="rotate(15)" /><rect
       style="display:inline;fill:#000000;stroke-width:0.103677;stroke-linecap:round;stroke-linejoin:round;paint-order:stroke fill markers"
       id="rect31"
       width="0.56569231"
       height="0.08485385"
       x="6.4918337"
       y="-4.4059119"
       ry="0.00029858423"
       transform="rotate(75)" /><rect
       style="display:inline;fill:#000000;stroke-width:0.103677;stroke-linecap:round;stroke-linejoin:round;paint-order:stroke fill markers"
       id="rect36"
       width="0.56569231"
       height="0.08485385"
       x="1.3070478"
       y="-7.398252"
       ry="0.00029858423"
       transform="rotate(135)" /><rect
       style="display:inline;fill:#000000;stroke-width:0.103677;stroke-linecap:round;stroke-linejoin:round;paint-order:stroke fill markers"
       id="rect41"
       width="0.56569231"
       height="0.08485385"
       x="-3.8767874"
       y="-4.4042654"
       ry="0.00029858423"
       transform="rotate(-165)" /><rect
       style="display:inline;fill:#000000;stroke-width:0.103677;stroke-linecap:round;stroke-linejoin:round;paint-order:stroke fill markers"
       id="rect46"
       width="0.56569231"
       height="0.08485385"
       x="-3.8758368"
       y="1.5820611"
       ry="0.00029858423"
       transform="rotate(-105)" /><rect
       style="display:inline;fill:#000000;stroke-width:0.103677;stroke-linecap:round;stroke-linejoin:round;paint-order:stroke fill markers"
       id="rect3-9-0-7"
       width="0.56569231"
       height="0.08485385"
       x="-3.8758368"
       y="1.5820611"
       ry="0.00029858423"
       transform="rotate(-105)" /><rect
       style="display:inline;fill:#000000;stroke-width:0.157902;stroke-linecap:round;stroke-linejoin:round;paint-order:stroke fill markers"
       id="rect18"
       width="0.86156565"
       height="0.12923485"
       x="-5.3372493"
       y="-0.75395429"
       ry="0.00045475233"
       transform="matrix(-0.70710678,-0.70710678,-0.70710678,0.70710678,0,0)" /><rect
       style="display:inline;fill:#000000;stroke-width:0.157902;stroke-linecap:round;stroke-linejoin:round;paint-order:stroke fill markers"
       id="rect23"
       width="0.86156565"
       height="0.12923485"
       x="-2.3432627"
       y="-5.9377894"
       ry="0.00045475233"
       transform="matrix(0.25881905,-0.96592583,-0.96592583,-0.25881905,0,0)" /><rect
       style="display:inline;fill:#000000;stroke-width:0.157902;stroke-linecap:round;stroke-linejoin:round;paint-order:stroke fill markers"
       id="rect32"
       width="0.86156565"
       height="0.12923485"
       x="3.6430635"
       y="-5.9368391"
       ry="0.00045475233"
       transform="matrix(0.96592583,-0.25881905,-0.25881905,-0.96592583,0,0)" /><rect
       style="display:inline;fill:#000000;stroke-width:0.157902;stroke-linecap:round;stroke-linejoin:round;paint-order:stroke fill markers"
       id="rect37"
       width="0.86156565"
       height="0.12923485"
       x="6.6354036"
       y="-0.7520529"
       ry="0.00045475233"
       transform="matrix(0.70710678,0.70710678,0.70710678,-0.70710678,0,0)" /><rect
       style="display:inline;fill:#000000;stroke-width:0.157902;stroke-linecap:round;stroke-linejoin:round;paint-order:stroke fill markers"
       id="rect42"
       width="0.86156565"
       height="0.12923485"
       x="3.641417"
       y="4.4317822"
       ry="0.00045475233"
       transform="matrix(-0.25881905,0.96592583,0.96592583,0.25881905,0,0)" /><rect
       style="display:inline;fill:#000000;stroke-width:0.157902;stroke-linecap:round;stroke-linejoin:round;paint-order:stroke fill markers"
       id="rect47"
       width="0.86156565"
       height="0.12923485"
       x="-2.3449094"
       y="4.4308319"
       ry="0.00045475233"
       transform="matrix(-0.96592583,0.25881905,0.25881905,0.96592583,0,0)" /><rect
       style="display:inline;fill:#000000;stroke-width:0.157902;stroke-linecap:round;stroke-linejoin:round;paint-order:stroke fill markers"
       id="rect3-5-3"
       width="0.86156565"
       height="0.12923485"
       x="-2.3449094"
       y="4.4308319"
       ry="0.00045475233"
       transform="matrix(-0.96592583,0.25881905,0.25881905,0.96592583,0,0)" /><rect
       style="display:inline;fill:#000000;stroke-width:0.103677;stroke-linecap:round;stroke-linejoin:round;paint-order:stroke fill markers"
       id="rect19"
       width="0.56569231"
       height="0.08485385"
       x="-4.6782923"
       y="-1.4128405"
       ry="0.00029858423"
       transform="matrix(-0.70710678,-0.70710678,-0.70710678,0.70710678,0,0)" /><rect
       style="display:inline;fill:#000000;stroke-width:0.103677;stroke-linecap:round;stroke-linejoin:round;paint-order:stroke fill markers"
       id="rect24"
       width="0.56569231"
       height="0.08485385"
       x="-1.6843058"
       y="-6.5966759"
       ry="0.00029858423"
       transform="matrix(0.25881905,-0.96592583,-0.96592583,-0.25881905,0,0)" /><rect
       style="display:inline;fill:#000000;stroke-width:0.103677;stroke-linecap:round;stroke-linejoin:round;paint-order:stroke fill markers"
       id="rect33"
       width="0.56569231"
       height="0.08485385"
       x="4.3020205"
       y="-6.5957251"
       ry="0.00029858423"
       transform="matrix(0.96592583,-0.25881905,-0.25881905,-0.96592583,0,0)" /><rect
       style="display:inline;fill:#000000;stroke-width:0.103677;stroke-linecap:round;stroke-linejoin:round;paint-order:stroke fill markers"
       id="rect38"
       width="0.56569231"
       height="0.08485385"
       x="7.2943606"
       y="-1.4109391"
       ry="0.00029858423"
       transform="matrix(0.70710678,0.70710678,0.70710678,-0.70710678,0,0)" /><rect
       style="display:inline;fill:#000000;stroke-width:0.103677;stroke-linecap:round;stroke-linejoin:round;paint-order:stroke fill markers"
       id="rect43"
       width="0.56569231"
       height="0.08485385"
       x="4.300374"
       y="3.7728963"
       ry="0.00029858423"
       transform="matrix(-0.25881905,0.96592583,0.96592583,0.25881905,0,0)" /><rect
       style="display:inline;fill:#000000;stroke-width:0.103677;stroke-linecap:round;stroke-linejoin:round;paint-order:stroke fill markers"
       id="rect48"
       width="0.56569231"
       height="0.08485385"
       x="-1.6859524"
       y="3.7719455"
       ry="0.00029858423"
       transform="matrix(-0.96592583,0.25881905,0.25881905,0.96592583,0,0)" /><rect
       style="display:inline;fill:#000000;stroke-width:0.103677;stroke-linecap:round;stroke-linejoin:round;paint-order:stroke fill markers"
       id="rect3-9-0-7-4"
       width="0.56569231"
       height="0.08485385"
       x="-1.6859524"
       y="3.7719455"
       ry="0.00029858423"
       transform="matrix(-0.96592583,0.25881905,0.25881905,0.96592583,0,0)" /></g></svg>
