<?xml version="1.0" encoding="UTF-8" standalone="no"?>
<!-- Created with Inkscape (http://www.inkscape.org/) -->

<svg
   width="31.999998"
   height="31.999998"
   viewBox="0 0 8.4666661 8.4666661"
   version="1.1"
   id="svg1"
   xmlns="http://www.w3.org/2000/svg"
   xmlns:svg="http://www.w3.org/2000/svg">
  <defs
     id="defs1" />
  <g
     id="layer1">
    <path
       id="path1"
       style="fill:#000000;stroke-width:0.481842;stroke-linecap:round;stroke-linejoin:round;paint-order:stroke fill markers"
       d="M 6.0058349,0.10645345 5.1387044,0.58756103 4.9655883,0.68367919 v 5.1677e-4 l 0.095601,0.17259928 5.168e-4,5.1676e-4 0.4811076,0.8671305 v 5.168e-4 h 5.167e-4 L 5.2746134,0.88470051 A 3.5057292,3.5057292 0 0 1 7.7406127,4.6994547 3.5057292,3.5057292 0 0 1 4.2648559,7.7478474 3.5057292,3.5057292 0 0 1 0.78909911,4.6994547 3.5057292,3.5057292 0 0 1 3.3574178,0.85576171 L 3.3062581,0.66352539 A 3.7041667,3.7041667 0 0 0 0.68677978,3.2830037 3.7041667,3.7041667 0 0 0 0.59272867,4.7252929 3.7041667,3.7041667 0 0 0 4.2648559,7.9462849 3.7041667,3.7041667 0 0 0 7.9374999,4.7252929 3.7041667,3.7041667 0 0 0 5.3185384,0.69039713 l 0.68833,-0.58342692 -5.167e-4,-5.1676e-4 z" />
  </g>
</svg>
