<?xml version="1.0" encoding="UTF-8" standalone="no"?>
<!-- Created with Inkscape (http://www.inkscape.org/) -->

<svg
   width="31.999998"
   height="31.999998"
   viewBox="0 0 8.4666661 8.4666661"
   version="1.1"
   id="svg1"
   xmlns="http://www.w3.org/2000/svg"
   xmlns:svg="http://www.w3.org/2000/svg">
  <defs
     id="defs1" />
  <g
     id="layer2"
     style="display:inline">
    <path
       id="path4"
       style="fill:#000000;stroke-width:0.299327;stroke-linecap:round;stroke-linejoin:round;paint-order:stroke fill markers"
       d="M 0.66354153,3.2912169 C 0.53770537,3.7610967 0.50565105,4.2511607 0.56920872,4.7334285 0.81178579,6.5762979 2.3825857,7.9540124 4.2413518,7.9541853 6.1004336,7.9543465 7.6716453,6.5764592 7.914182,4.733266 8.1567116,2.8902928 6.9957492,1.1529909 5.2002006,0.67197558 l -0.051359,0.1916759 C 6.8482663,1.3190183 7.9469541,2.9634574 7.7171824,4.7077648 7.4874878,6.4518977 6.0007488,7.7557114 4.241556,7.7557573 2.4821048,7.7558673 0.99511597,6.4518127 0.76557096,4.7073995 0.53604778,2.9631781 1.634795,1.3189686 3.3341267,0.86370948 l -0.0513,-0.19189862 C 2.0044895,1.0143404 1.0060121,2.0128639 0.66354153,3.2912169 Z" />
    <rect
       style="fill:#000000;stroke-width:0.314227;stroke-linecap:round;stroke-linejoin:round;paint-order:stroke fill markers"
       id="rect6"
       width="0.1984375"
       height="2.1166666"
       x="4.1341147"
       y="0.14957316"
       ry="0.0013362792" />
  </g>
</svg>
