<?xml version="1.0" encoding="UTF-8" standalone="no"?>
<!-- Created with Inkscape (http://www.inkscape.org/) -->

<svg
   width="31.999998"
   height="31.999998"
   viewBox="0 0 8.4666661 8.4666661"
   version="1.1"
   id="svg1"
   xmlns="http://www.w3.org/2000/svg"
   xmlns:svg="http://www.w3.org/2000/svg">
  <defs
     id="defs1" />
  <g
     id="layer1"
     transform="translate(-1.2462223,-1.2462223)"
     style="fill:#000000">
    <path
       id="path1"
       style="fill:#000000;stroke-width:0.398731;stroke-linecap:round;stroke-linejoin:round;paint-order:stroke fill markers"
       d="M 5.4795556,1.775389 A 3.7041667,3.7041667 0 0 0 1.775389,5.4795556 3.7041667,3.7041667 0 0 0 5.4795556,9.1837222 3.7041667,3.7041667 0 0 0 9.1837222,5.4795556 3.7041667,3.7041667 0 0 0 5.4795556,1.775389 Z m 0,0.1984375 A 3.5057292,3.5057292 0 0 1 8.9852847,5.4795556 3.5057292,3.5057292 0 0 1 5.4795556,8.9852847 3.5057292,3.5057292 0 0 1 1.9738265,5.4795556 3.5057292,3.5057292 0 0 1 5.4795556,1.9738265 Z" />
    <path
       id="rect2"
       style="fill:#000000;stroke-width:0.389611;stroke-linecap:round;stroke-linejoin:round;paint-order:stroke fill markers"
       d="m 4.6591922,3.8920556 v 5.168e-4 h -5.167e-4 -5.168e-4 v 5.167e-4 5.168e-4 H 4.657642 v 5.168e-4 5.167e-4 3.1698324 5.167e-4 5.168e-4 h 5.167e-4 v 5.168e-4 5.167e-4 h 5.168e-4 5.167e-4 v 5.168e-4 h 5.168e-4 5.168e-4 0.1932698 5.168e-4 5.168e-4 v -5.168e-4 h 5.167e-4 5.168e-4 v -5.167e-4 -5.168e-4 h 5.167e-4 V 7.0649885 7.0644718 3.8946394 3.8941227 3.8936059 H 4.8555627 V 3.8930891 3.8925724 H 4.8550459 4.8545292 V 3.8920556 H 4.8540124 4.8534956 4.6602258 4.659709 Z m 1.4453898,0 -5.167e-4,5.168e-4 h -5.168e-4 v 5.167e-4 l -5.167e-4,5.168e-4 v 5.168e-4 5.167e-4 3.1698324 5.167e-4 5.168e-4 l 5.167e-4,5.168e-4 v 5.167e-4 h 5.168e-4 l 5.167e-4,5.168e-4 h 5.168e-4 5.168e-4 0.1932698 5.168e-4 5.168e-4 v -5.168e-4 h 5.167e-4 l 5.168e-4,-5.167e-4 v -5.168e-4 h 5.167e-4 V 7.0649885 7.0644718 3.8946394 3.8941227 3.8936059 H 6.3009525 V 3.8930891 L 6.3004357,3.8925724 H 6.299919 V 3.8920556 H 6.2994022 6.2988854 6.1056156 6.1050988 Z" />
  </g>
</svg>
