<?xml version="1.0" encoding="UTF-8" standalone="no"?>
<!-- Created with Inkscape (http://www.inkscape.org/) -->

<svg
   width="32"
   height="32"
   viewBox="0 0 32 32"
   version="1.1"
   id="svg1"
   inkscape:version="1.4.2 (ebf0e940d0, 2025-05-08)"
   sodipodi:docname="user.svg"
   inkscape:export-filename="../exports/user.png"
   inkscape:export-xdpi="96"
   inkscape:export-ydpi="96"
   xmlns:inkscape="http://www.inkscape.org/namespaces/inkscape"
   xmlns:sodipodi="http://sodipodi.sourceforge.net/DTD/sodipodi-0.dtd"
   xmlns="http://www.w3.org/2000/svg"
   xmlns:svg="http://www.w3.org/2000/svg">
  <sodipodi:namedview
     id="namedview1"
     pagecolor="#ffffff"
     bordercolor="#ffffff"
     borderopacity="1"
     inkscape:showpageshadow="0"
     inkscape:pageopacity="0"
     inkscape:pagecheckerboard="1"
     inkscape:deskcolor="#505050"
     inkscape:document-units="px"
     inkscape:zoom="35.46875"
     inkscape:cx="21.159471"
     inkscape:cy="20.623789"
     inkscape:window-width="2540"
     inkscape:window-height="1363"
     inkscape:window-x="0"
     inkscape:window-y="0"
     inkscape:window-maximized="1"
     inkscape:current-layer="layer1" />
  <defs
     id="defs1">
    <inkscape:path-effect
       effect="mirror_symmetry"
       start_point="16,30.703083"
       end_point="16,15.929516"
       center_point="16,23.316299"
       id="path-effect2"
       is_visible="true"
       lpeversion="1.2"
       lpesatellites=""
       mode="free"
       discard_orig_path="false"
       fuse_paths="true"
       oposite_fuse="true"
       split_items="false"
       split_open="false"
       link_styles="false" />
  </defs>
  <g
     inkscape:label="Layer 1"
     inkscape:groupmode="layer"
     id="layer1">
    <path
       id="path5"
       style="stroke-width:2.82139;stroke-linecap:round;stroke-linejoin:round;paint-order:stroke fill markers"
       d="m 20.908708,1.0988798 c -6.096545,0 -9.482982,6.2692991 -9.965966,7.7966972 H 7.7270685 c -0.5311919,0 -0.9590222,0.4278306 -0.9590221,0.9590218 0,0.5311922 0.4278302,0.9590222 0.9590221,0.9590222 h 3.5739415 9.39798 3.573941 c 0.531192,0 0.959022,-0.42783 0.959022,-0.9590222 0,-0.5311912 -0.42783,-0.9590218 -0.959022,-0.9590218 H 21.223285 C 14.092942,4.3491388 22.008155,1.0988798 20.908708,1.0988798 Z M 11.084739,11.372869 c -0.161255,0.507199 -0.243052,1.036298 -0.242487,1.568515 5.54e-4,2.848316 2.309432,5.157194 5.157748,5.157747 2.848316,-5.53e-4 5.157194,-2.309431 5.157748,-5.157747 5.65e-4,-0.532217 -0.08124,-1.061316 -0.242487,-1.568515 z M 16,19.208889 l -2.593073,0.01311 c -2.456212,0.0114 -5.826224,1.828054 -5.8262241,6.086187 v 4.456504 c 0,0.632363 0.6079565,1.140341 1.3631659,1.140341 H 16 23.056131 c 0.755209,0 1.363166,-0.507978 1.363166,-1.140341 v -4.456504 c 0,-4.258133 -3.370012,-6.074796 -5.826224,-6.086187 z" />
  </g>
</svg>
